# xmcd
#
# Track frame offsets:
# 150
# 13620
# 28317
# 43010
# 56849
# 70427
# 84760
# 99018
# 112615
# 125764
# 139995
# 152325
# 164835
# 178405
# 192016
# 208284
#
# Disc length: 2956 seconds
#
#
# Revision: 0
# Processed by: cddbd v1.4PL0 Copyright (c) Steve Scherf et al.
# Submitted via: FreeRIP 2.20 
#
DISCID=e00b8a10
DTITLE=John Lee Hooker - John Lee Hooker
DYEAR=2000
DGENRE=Blues
TTITLE0=Nighmare Blues
TTITLE1=Wandering Blues
TTITLE2=Baby Please Don't Go
TTITLE3=I'm Gonna Kill That Woman
TTITLE4=Heart Trouble Blues
TTITLE5=Stomp Boogie
TTITLE6=Who's Been Jivin' You
TTITLE7=Late Last Night
TTITLE8=Devil's Jump
TTITLE9=The Numbers
TTITLE10=Moaning Blues
TTITLE11=Don't You Remember Me
TTITLE12=Thinking Blues
TTITLE13=Slim's Stomp
TTITLE14=Black Man Blues
TTITLE15=Poor Joe
EXTD=
EXTT0=
EXTT1=
EXTT2=
EXTT3=
EXTT4=
EXTT5=
EXTT6=
EXTT7=
EXTT8=
EXTT9=
EXTT10=
EXTT11=
EXTT12=
EXTT13=
EXTT14=
EXTT15=
PLAYORDER=
